<svg width="40" height="48" viewBox="0 0 40 48" fill="none" xmlns="http://www.w3.org/2000/svg">
<path d="M17.0614 27.6869C15.548 27.6869 14.3174 26.4616 14.3174 24.9511C14.3174 23.4406 15.548 22.2171 17.0614 22.2171C18.5803 22.2171 19.8091 23.4424 19.8091 24.9511C19.8109 26.4634 18.5803 27.6869 17.0614 27.6869ZM31.3257 28.0313L23.726 20.5936C21.8829 18.7906 19.4776 17.8219 17.0614 17.7986C14.6507 17.8237 12.2436 18.7906 10.4023 20.5936L2.79718 28.0313C-0.932394 31.682 -0.932394 37.5985 2.79718 41.2474L3.76471 42.1875C5.46914 43.8612 14.3715 47.6788 15.1696 47.9999V33.5567C15.1696 33.1154 14.8579 32.7172 14.4363 32.5539L9.69419 30.7097C9.29961 31.0398 8.79333 31.2389 8.23299 31.2389C6.98079 31.2389 5.95921 30.2236 5.95921 28.9714C5.95921 27.7192 6.98079 26.7056 8.23299 26.7056C9.40051 26.7056 10.35 27.5721 10.4924 28.6933L15.1102 30.4891C15.7354 30.733 16.3984 30.8586 17.0596 30.8676C17.7299 30.8586 18.3911 30.733 19.0181 30.4891L23.6305 28.6933C23.7675 27.5721 24.7278 26.7056 25.8899 26.7056C27.1457 26.7056 28.1673 27.7192 28.1673 28.9714C28.1673 30.2236 27.1457 31.2389 25.8899 31.2389C25.335 31.2389 24.8197 31.038 24.4287 30.7097L19.6866 32.5539C19.2686 32.7172 18.9587 33.1154 18.9587 33.5567V47.9999C19.7532 47.6788 28.6502 43.8612 30.3636 42.1875L31.3221 41.2474C35.0553 37.5967 35.0553 31.6803 31.3257 28.0313Z" fill="#7EBA34"/>
<path d="M10.3104 16.6323C9.42653 15.9675 9.20557 15.2473 9.20557 14.9703C9.20557 13.4009 10.2575 12.0263 11.7723 11.6161L12.2683 11.4818C12.6792 11.3706 13.1047 11.3233 13.53 11.3415L16.7552 11.4802L21.7122 12.2832C23.1891 12.5225 24.6296 12.9483 25.9992 13.5506L29.5267 15.1017C30.5621 15.557 31.4318 16.3208 32.0168 17.2889L32.8859 18.7271C33.1661 19.1906 33.229 19.7537 33.0582 20.2677C32.8794 20.8057 32.4638 21.232 31.9306 21.4245L31.8543 21.452C31.4861 21.5628 30.5654 21.7844 29.8288 21.7844C29.6635 21.7844 29.5075 21.8123 29.3628 21.8588C28.5554 22.1178 28.2485 23.035 28.0385 23.8564L27.807 24.7617C27.8046 24.7712 27.8033 24.7809 27.8033 24.7907C27.8033 24.8673 27.731 24.9231 27.657 24.9036C26.1417 24.5032 23.3425 23.7413 23.1999 23.6126C23.0526 23.4796 18.7193 22.006 16.571 21.2858C12.8288 20.2465 11.0085 20.9209 10.5263 21.4174C10.5052 21.4391 10.4771 21.452 10.4469 21.452C10.3783 21.452 10.3285 21.3867 10.346 21.3203C10.7101 19.9444 11.166 17.2759 10.3104 16.6323Z" fill="white" stroke="#7EBA34"/>
<path d="M34.5397 14.7945C34.5534 14.7502 34.5664 14.7049 34.5794 14.6596C35.1281 12.61 33.9269 10.5484 31.8426 9.7535C31.6749 9.68966 31.536 9.51427 31.5264 9.35038C31.38 6.89824 29.479 4.72023 26.699 4.11431C25.0796 3.76149 23.4568 4.007 22.1118 4.69291C21.9533 4.77378 21.7552 4.73072 21.6548 4.59357C20.8043 3.43295 19.4852 2.54718 17.8675 2.19473C14.8512 1.53744 11.8181 2.95498 10.6071 5.42986C10.534 5.57991 10.3341 5.69828 10.153 5.70204C7.9556 5.75131 5.98074 7.12007 5.44085 9.1401C4.79527 11.5528 6.43935 13.9804 9.11186 14.5621C10.9068 14.9531 12.7095 14.4123 13.895 13.2835C14.0204 13.1647 14.251 13.1103 14.4232 13.161C14.5799 13.2075 14.739 13.2487 14.9023 13.2842C16.5217 13.637 18.1454 13.3917 19.4893 12.7064C19.6478 12.6255 19.8459 12.6686 19.9463 12.8057C20.7966 13.9671 22.1161 14.8513 23.7338 15.2038C24.2794 15.3224 24.8249 15.3729 25.3608 15.3625C25.5429 15.3589 25.7475 15.4706 25.8308 15.6165C26.4367 16.6708 27.5251 17.4907 28.9041 17.7904C28.9857 17.8081 29.067 17.8241 29.1479 17.8376C29.2834 17.8604 29.3889 18.0061 29.3995 18.1694C29.4957 19.5801 30.5943 20.8303 32.1966 21.1786C34.1627 21.6068 36.1406 20.5158 36.6159 18.7414C37.0147 17.25 36.2241 15.7514 34.7943 15.0565C34.6319 14.9797 34.5162 14.8691 34.5397 14.7945Z" fill="#7EBA34"/>
<path d="M31.1521 11.404C30.3331 14.4669 26.953 16.3574 23.603 15.6276C20.2522 14.8976 18.2003 11.8239 19.0193 8.76101C19.839 5.6991 23.2184 3.80756 26.5682 4.53814C29.9192 5.26733 31.9709 8.34186 31.1521 11.404Z" fill="url(#paint0_linear_215_4015)"/>
<path d="M14.9464 11.7174C14.3008 14.1301 11.6123 15.6134 8.93914 15.0307C6.26684 14.4482 4.62275 12.0207 5.26726 9.60857C5.91264 7.19661 8.60304 5.71288 11.2745 6.2952C13.9485 6.87808 15.5917 9.30541 14.9464 11.7174Z" fill="#7EBA34"/>
<path d="M14.2072 11.521C13.6077 13.7615 11.1104 15.1387 8.62895 14.5978C6.14727 14.0576 4.62058 11.8034 5.22007 9.56294C5.81936 7.3232 8.31685 5.94524 10.7983 6.48615C13.2806 7.02724 14.8065 9.28125 14.2072 11.521Z" fill="url(#paint1_linear_215_4015)"/>
<path d="M22.365 9.68321C21.5459 12.7461 18.1321 14.6293 14.7386 13.8901C11.346 13.151 9.25865 10.0696 10.0777 7.00667C10.8974 3.94476 14.3123 2.06093 17.7041 2.79981C21.0984 3.53926 23.1847 6.6213 22.365 9.68321Z" fill="#7EBA34"/>
<path d="M22.3299 9.50193C21.5211 12.5263 18.1494 14.3857 14.7994 13.6559C11.4486 12.9259 9.38834 9.88342 10.1971 6.85905C11.0065 3.83564 14.3776 1.97531 17.7273 2.70586C21.0792 3.43523 23.1384 6.47834 22.3299 9.50193Z" fill="white"/>
<path d="M36.5824 19.0265C36.0965 20.8442 34.0698 21.9627 32.0553 21.5232C30.0414 21.0846 28.8023 19.2546 29.2882 17.4369C29.775 15.6194 31.8017 14.5008 33.8154 14.9402C35.8308 15.3799 37.0692 17.209 36.5824 19.0265Z" fill="#7EBA34"/>
<path d="M36.1817 18.8521C35.7073 20.6266 33.8135 21.7359 31.9521 21.3305C30.0908 20.9251 28.9661 19.158 29.4415 17.3829C29.9164 15.6093 31.8097 14.4991 33.671 14.9045C35.5324 15.3099 36.656 17.0775 36.1817 18.8521Z" fill="url(#paint2_linear_215_4015)"/>
<path d="M34.4459 15.1589C33.8359 17.4384 31.2949 18.8409 28.7686 18.2901C26.2431 17.7395 24.6894 15.4453 25.2986 13.1657C25.9086 10.8863 28.4504 9.48394 30.9759 10.0345C33.5031 10.5855 35.0559 12.8795 34.4459 15.1589Z" fill="#7EBA34"/>
<path d="M34.3768 14.719C33.7669 16.9985 31.3616 18.4305 29.0044 17.9165C26.6471 17.4033 25.2298 15.1387 25.8391 12.8583C26.449 10.5789 28.8543 9.14686 31.2114 9.66086C33.5702 10.1752 34.9867 12.4396 34.3768 14.719Z" fill="url(#paint3_linear_215_4015)"/>
<path d="M23.4694 11.7223C22.847 14.048 20.2545 15.4784 17.6778 14.9166C15.1019 14.3551 13.5163 12.015 14.1387 9.68927C14.7611 7.36358 17.3544 5.93343 19.9303 6.49497C22.507 7.0567 24.0917 9.39664 23.4694 11.7223Z" fill="#7EBA34"/>
<path d="M23.5529 11.4086C22.9305 13.7343 20.338 15.1646 17.7613 14.6029C15.1843 14.042 13.5996 11.702 14.2222 9.37555C14.8443 7.05064 17.4379 5.61971 20.0138 6.18125C22.5905 6.74298 24.1741 9.08352 23.5529 11.4086Z" fill="url(#paint4_linear_215_4015)"/>
<path d="M28.9997 12.3127C28.2752 15.0211 25.2558 16.6872 22.2542 16.0331C19.2534 15.3792 17.4075 12.6539 18.132 9.94553C18.8564 7.23713 21.8767 5.57121 24.8766 6.22491C27.8791 6.87918 29.7242 9.60429 28.9997 12.3127Z" fill="#7EBA34"/>
<path d="M28.9645 11.7443C28.2401 14.4527 25.2208 16.1181 22.219 15.4648C19.2183 14.8109 17.3723 12.0856 18.0968 9.37717C18.8221 6.66895 21.8416 5.00285 24.8423 5.65674C27.8441 6.31004 29.6892 9.03514 28.9645 11.7443Z" fill="#7EBA34"/>
<path d="M29.1011 11.8064C28.3821 14.4943 25.3846 16.1476 22.4074 15.4989C19.4294 14.8499 17.5974 12.1452 18.3164 9.45727C19.036 6.77029 22.0328 5.116 25.0107 5.76573C27.9892 6.41313 29.8201 9.11841 29.1011 11.8064Z" fill="url(#paint5_linear_215_4015)"/>
<path d="M10.6772 17.5861C12.5186 16.9213 17.1588 16.2232 20.9889 18.7494C24.8189 21.2757 27.7406 22.018 28.7226 22.0734" stroke="#7EBA34"/>
<defs>
<linearGradient id="paint0_linear_215_4015" x1="19.0182" y1="8.7637" x2="31.003" y2="11.9614" gradientUnits="userSpaceOnUse">
<stop stop-color="white"/>
<stop offset="1" stop-color="#F8F8F8"/>
</linearGradient>
<linearGradient id="paint1_linear_215_4015" x1="5.21929" y1="9.56525" x2="14.0972" y2="11.934" gradientUnits="userSpaceOnUse">
<stop stop-color="white"/>
<stop offset="1" stop-color="#EAEAEA"/>
</linearGradient>
<linearGradient id="paint2_linear_215_4015" x1="29.4409" y1="17.385" x2="36.0991" y2="19.1615" gradientUnits="userSpaceOnUse">
<stop stop-color="white"/>
<stop offset="1" stop-color="#EAEAEA"/>
</linearGradient>
<linearGradient id="paint3_linear_215_4015" x1="25.8391" y1="12.8612" x2="34.2723" y2="15.1113" gradientUnits="userSpaceOnUse">
<stop stop-color="white"/>
<stop offset="1" stop-color="#F0F0F0"/>
</linearGradient>
<linearGradient id="paint4_linear_215_4015" x1="14.2211" y1="9.37789" x2="23.4381" y2="11.8371" gradientUnits="userSpaceOnUse">
<stop stop-color="white"/>
<stop offset="1" stop-color="#F8F8F8"/>
</linearGradient>
<linearGradient id="paint5_linear_215_4015" x1="18.3151" y1="9.45922" x2="28.9687" y2="12.3017" gradientUnits="userSpaceOnUse">
<stop stop-color="white"/>
<stop offset="1" stop-color="#F2F2F2"/>
</linearGradient>
</defs>
</svg>
