<svg width="100" height="56" viewBox="0 0 100 56" fill="none" xmlns="http://www.w3.org/2000/svg">
<g filter="url(#filter0_d_1_96)">
<path d="M21.0614 27.6869C19.548 27.6869 18.3174 26.4616 18.3174 24.9511C18.3174 23.4406 19.548 22.2171 21.0614 22.2171C22.5803 22.2171 23.8091 23.4424 23.8091 24.9511C23.8109 26.4634 22.5803 27.6869 21.0614 27.6869ZM35.3257 28.0313L27.726 20.5936C25.8829 18.7906 23.4776 17.8219 21.0614 17.7986C18.6507 17.8237 16.2436 18.7906 14.4023 20.5936L6.79718 28.0313C3.06761 31.682 3.06761 37.5985 6.79718 41.2474L7.76471 42.1875C9.46914 43.8612 18.3715 47.6788 19.1696 47.9999V33.5567C19.1696 33.1154 18.8579 32.7172 18.4363 32.5539L13.6942 30.7097C13.2996 31.0398 12.7933 31.2389 12.233 31.2389C10.9808 31.2389 9.95921 30.2236 9.95921 28.9714C9.95921 27.7192 10.9808 26.7056 12.233 26.7056C13.4005 26.7056 14.35 27.5721 14.4924 28.6933L19.1102 30.4891C19.7354 30.733 20.3984 30.8586 21.0596 30.8676C21.7299 30.8586 22.3911 30.733 23.0181 30.4891L27.6305 28.6933C27.7675 27.5721 28.7278 26.7056 29.8899 26.7056C31.1457 26.7056 32.1673 27.7192 32.1673 28.9714C32.1673 30.2236 31.1457 31.2389 29.8899 31.2389C29.335 31.2389 28.8197 31.038 28.4287 30.7097L23.6866 32.5539C23.2686 32.7172 22.9587 33.1154 22.9587 33.5567V47.9999C23.7532 47.6788 32.6502 43.8612 34.3636 42.1875L35.3221 41.2474C39.0553 37.5967 39.0553 31.6803 35.3257 28.0313Z" fill="#7EBA34"/>
<path d="M47.7678 33.5029H49.3479V23.6612H47.7678V33.5029ZM91.7155 28.2753L96 33.5047H94.1226L90.2651 28.7597V27.8537L94.0524 23.663H95.8685L91.7155 28.2753ZM89.7102 33.5029H88.1247V23.6612H89.7102V33.5029ZM84.8401 26.6679C84.8401 26.1817 84.6888 25.7924 84.3879 25.5018C84.0816 25.2094 83.6294 25.0641 83.0204 25.0641H80.9827V28.3345H82.9772C83.5681 28.3345 84.0204 28.1838 84.3483 27.8824C84.6798 27.581 84.8401 27.1756 84.8401 26.6679ZM86.4239 26.6679C86.4239 27.3496 86.2275 27.9398 85.8383 28.4439C85.4473 28.9444 84.923 29.2978 84.2672 29.5024L86.6022 33.5029H84.8978L82.6997 29.7356H80.9808V33.5029H79.3953V23.6612H83.0186C83.5555 23.6612 84.0402 23.7384 84.4654 23.8944C84.887 24.0505 85.2473 24.2658 85.5356 24.5367C85.8239 24.8111 86.0419 25.1287 86.1932 25.4946C86.3482 25.8588 86.4239 26.2517 86.4239 26.6679ZM74.3973 27.6331L73.7217 25.2973H73.6947L73.0208 27.6331L72.2893 29.7212H75.1306L74.3973 27.6331ZM78.1233 33.5029H76.4801L75.6135 31.0792H71.7866L70.9344 33.5029H69.2967L72.9019 23.6612H74.5181L78.1233 33.5029ZM67.8625 26.7863C67.8625 26.2607 67.7021 25.8409 67.4048 25.5287C67.104 25.2184 66.6589 25.0623 66.0824 25.0623H64.2662V28.5677H65.9977C66.5797 28.5677 67.0373 28.4098 67.3688 28.0923C67.6931 27.7766 67.8625 27.3406 67.8625 26.7863ZM69.4426 26.7863C69.4426 27.233 69.3579 27.6492 69.1994 28.0349C69.039 28.4206 68.8084 28.7543 68.5075 29.0413C68.2138 29.3301 67.8499 29.5562 67.4247 29.7194C67.0031 29.8845 66.5274 29.967 65.9995 29.967H64.268V33.5011H62.6789V23.6594H66.0842C66.6121 23.6594 67.0823 23.7402 67.5003 23.9016C67.9183 24.0613 68.2679 24.2837 68.5525 24.5672C68.8462 24.8488 69.0678 25.1789 69.2192 25.5592C69.3669 25.9378 69.4426 26.3486 69.4426 26.7863ZM55.054 33.5029H53.4739V25.048L50.5713 25.0623V23.6594H57.9764V25.0623L55.0558 25.048V33.5029H55.054Z" fill="#323231"/>
<path d="M48.2369 40.7689H47.7678V37.2412H48.2369V38.9305L49.7888 37.2412H50.3727L49.0154 38.7119L50.4525 40.7689H49.8886L48.681 39.015L48.2369 39.4473V40.7689Z" fill="#323231"/>
<path d="M51.3606 40.7689H50.8915V37.2412H51.3606V40.7689Z" fill="#323231"/>
<path d="M53.465 40.7689H52.996V37.6685H51.9381V37.2412H54.523V37.6685H53.465V40.7689Z" fill="#323231"/>
<path d="M57.7291 38.1157L57.31 38.3094C57.1104 37.8291 56.7993 37.589 56.3768 37.589C56.2138 37.589 56.0674 37.6221 55.9377 37.6884C55.8079 37.7546 55.6965 37.849 55.6033 37.9716C55.5135 38.0941 55.4436 38.2432 55.3937 38.4188C55.3472 38.5943 55.3239 38.7914 55.3239 39.01C55.3239 39.2253 55.3472 39.4208 55.3937 39.5963C55.4436 39.7686 55.5135 39.916 55.6033 40.0385C55.6931 40.1611 55.8013 40.2555 55.9277 40.3217C56.0541 40.388 56.1972 40.4211 56.3568 40.4211C56.5698 40.4211 56.7577 40.3582 56.9207 40.2323C57.0837 40.1031 57.2151 39.9143 57.3149 39.6659L57.7391 39.8597C57.5994 40.181 57.4131 40.4244 57.1802 40.5901C56.9473 40.7557 56.6745 40.8385 56.3618 40.8385C56.1356 40.8385 55.9293 40.7954 55.7431 40.7093C55.5568 40.6232 55.3971 40.5006 55.264 40.3416C55.1343 40.1826 55.0328 39.9922 54.9596 39.7702C54.8897 39.545 54.8548 39.2949 54.8548 39.02C54.8548 38.7417 54.8914 38.4883 54.9646 38.2598C55.0378 38.0312 55.1409 37.8374 55.274 37.6784C55.4104 37.5161 55.5734 37.3919 55.763 37.3058C55.9526 37.2163 56.1639 37.1716 56.3968 37.1716C57.0155 37.1716 57.4597 37.4863 57.7291 38.1157Z" fill="#323231"/>
<path d="M58.8848 40.7689H58.4157V37.2412H58.8848V38.7119H60.6314V37.2412H61.1004V40.7689H60.6314V39.1293H58.8848V40.7689Z" fill="#323231"/>
<path d="M64.1447 40.3516V40.7689H61.9391V37.2412H64.0649V37.6586H62.4081V38.7417H63.9152V39.1491H62.4081V40.3516H64.1447Z" fill="#323231"/>
<path d="M65.3123 40.7689H64.8532V37.2412H65.3822L67.2186 39.964H67.2285V37.2412H67.6876V40.7689H67.2285L65.3223 37.9368H65.3123V40.7689Z" fill="#323231"/>
<path d="M14.3109 16.6323C13.427 15.9675 13.2061 15.2473 13.2061 14.9703C13.2061 13.4009 14.258 12.0263 15.7728 11.6161L16.2688 11.4818C16.6797 11.3706 17.1052 11.3233 17.5305 11.3415L20.7556 11.4802L25.7127 12.2832C27.1896 12.5225 28.6301 12.9483 29.9997 13.5506L33.5272 15.1017C34.5626 15.557 35.4322 16.3208 36.0173 17.2889L36.8864 18.7271C37.1666 19.1906 37.2295 19.7537 37.0587 20.2677C36.8799 20.8057 36.4643 21.232 35.9311 21.4245L35.8548 21.452C35.4866 21.5628 34.5659 21.7844 33.8293 21.7844C33.664 21.7844 33.5079 21.8123 33.3632 21.8588C32.5559 22.1178 32.249 23.035 32.0389 23.8564L31.8075 24.7617C31.8051 24.7712 31.8038 24.7809 31.8038 24.7907C31.8038 24.8673 31.7315 24.9231 31.6574 24.9036C30.1421 24.5032 27.343 23.7413 27.2004 23.6126C27.0531 23.4796 22.7198 22.006 20.5715 21.2858C16.8293 20.2465 15.009 20.9209 14.5268 21.4174C14.5057 21.4391 14.4776 21.452 14.4474 21.452C14.3788 21.452 14.329 21.3867 14.3465 21.3203C14.7106 19.9444 15.1665 17.2759 14.3109 16.6323Z" fill="white" stroke="#7EBA34"/>
<path d="M38.5402 14.7945C38.5539 14.7502 38.5669 14.7049 38.5799 14.6596C39.1286 12.61 37.9274 10.5484 35.8431 9.7535C35.6754 9.68966 35.5365 9.51427 35.5269 9.35038C35.3805 6.89824 33.4795 4.72023 30.6995 4.11431C29.0801 3.76149 27.4573 4.007 26.1123 4.69291C25.9538 4.77378 25.7557 4.73072 25.6553 4.59357C24.8048 3.43295 23.4857 2.54718 21.868 2.19473C18.8517 1.53744 15.8186 2.95498 14.6076 5.42986C14.5344 5.57991 14.3346 5.69828 14.1535 5.70204C11.9561 5.75131 9.98122 7.12007 9.44134 9.1401C8.79576 11.5528 10.4398 13.9804 13.1123 14.5621C14.9073 14.9531 16.7099 14.4123 17.8955 13.2835C18.0209 13.1647 18.2515 13.1103 18.4236 13.161C18.5804 13.2075 18.7395 13.2487 18.9028 13.2842C20.5222 13.637 22.1459 13.3917 23.4898 12.7064C23.6483 12.6255 23.8464 12.6686 23.9468 12.8057C24.7971 13.9671 26.1166 14.8513 27.7342 15.2038C28.2799 15.3224 28.8254 15.3729 29.3613 15.3625C29.5434 15.3589 29.748 15.4706 29.8313 15.6165C30.4371 16.6708 31.5256 17.4907 32.9045 17.7904C32.9862 17.8081 33.0674 17.8241 33.1484 17.8376C33.2839 17.8604 33.3894 18.0061 33.4 18.1694C33.4962 19.5801 34.5948 20.8303 36.1971 21.1786C38.1632 21.6068 40.1411 20.5158 40.6164 18.7414C41.0152 17.25 40.2246 15.7514 38.7948 15.0565C38.6324 14.9797 38.5167 14.8691 38.5402 14.7945Z" fill="#7EBA34"/>
<path d="M35.1526 11.404C34.3335 14.4669 30.9535 16.3574 27.6035 15.6276C24.2527 14.8976 22.2008 11.8239 23.0198 8.76101C23.8395 5.6991 27.2189 3.80756 30.5687 4.53814C33.9197 5.26733 35.9714 8.34186 35.1526 11.404Z" fill="url(#paint0_linear_1_96)"/>
<path d="M18.9468 11.7174C18.3013 14.1301 15.6128 15.6134 12.9396 15.0307C10.2673 14.4482 8.62324 12.0207 9.26775 9.60857C9.91313 7.19661 12.6035 5.71288 15.275 6.2952C17.949 6.87808 19.5922 9.30541 18.9468 11.7174Z" fill="#7EBA34"/>
<path d="M18.2075 11.521C17.608 13.7615 15.1107 15.1387 12.6292 14.5978C10.1475 14.0576 8.62082 11.8034 9.22031 9.56294C9.8196 7.3232 12.3171 5.94524 14.7986 6.48615C17.2809 7.02724 18.8068 9.28125 18.2075 11.521Z" fill="url(#paint1_linear_1_96)"/>
<path d="M26.3655 9.68321C25.5464 12.7461 22.1326 14.6293 18.7391 13.8901C15.3465 13.151 13.2591 10.0696 14.0782 7.00667C14.8979 3.94476 18.3128 2.06093 21.7046 2.79981C25.0989 3.53926 27.1852 6.6213 26.3655 9.68321Z" fill="#7EBA34"/>
<path d="M26.3301 9.50193C25.5214 12.5263 22.1496 14.3857 18.7997 13.6559C15.4488 12.9259 13.3886 9.88342 14.1973 6.85905C15.0067 3.83564 18.3778 1.97531 21.7276 2.70586C25.0795 3.43523 27.1387 6.47834 26.3301 9.50193Z" fill="white"/>
<path d="M40.5829 19.0265C40.097 20.8442 38.0703 21.9627 36.0558 21.5232C34.0419 21.0846 32.8028 19.2546 33.2887 17.4369C33.7755 15.6194 35.8022 14.5008 37.8159 14.9402C39.8313 15.3799 41.0697 17.209 40.5829 19.0265Z" fill="#7EBA34"/>
<path d="M40.1819 18.8521C39.7076 20.6266 37.8137 21.7359 35.9524 21.3305C34.091 20.9251 32.9664 19.158 33.4417 17.3829C33.9167 15.6093 35.8099 14.4991 37.6713 14.9045C39.5326 15.3099 40.6563 17.0775 40.1819 18.8521Z" fill="url(#paint2_linear_1_96)"/>
<path d="M38.4461 15.1589C37.8361 17.4384 35.2952 18.8409 32.7688 18.2901C30.2434 17.7395 28.6897 15.4453 29.2988 13.1657C29.9088 10.8863 32.4507 9.48394 34.9761 10.0345C37.5033 10.5855 39.0562 12.8795 38.4461 15.1589Z" fill="#7EBA34"/>
<path d="M38.3772 14.719C37.7673 16.9985 35.3621 18.4305 33.0049 17.9165C30.6476 17.4033 29.2303 15.1387 29.8396 12.8583C30.4495 10.5789 32.8548 9.14686 35.2119 9.66086C37.5707 10.1752 38.9871 12.4396 38.3772 14.719Z" fill="url(#paint3_linear_1_96)"/>
<path d="M27.4694 11.7223C26.847 14.048 24.2545 15.4784 21.6778 14.9166C19.1019 14.3551 17.5163 12.015 18.1387 9.68927C18.7611 7.36358 21.3544 5.93343 23.9303 6.49497C26.507 7.0567 28.0917 9.39664 27.4694 11.7223Z" fill="#7EBA34"/>
<path d="M27.5531 11.4086C26.9307 13.7343 24.3382 15.1646 21.7615 14.6029C19.1846 14.042 17.5999 11.702 18.2224 9.37555C18.8446 7.05064 21.4382 5.61971 24.014 6.18125C26.5907 6.74298 28.1744 9.08352 27.5531 11.4086Z" fill="url(#paint4_linear_1_96)"/>
<path d="M33.0002 12.3127C32.2757 15.0211 29.2563 16.6872 26.2546 16.0331C23.2539 15.3792 21.408 12.6539 22.1324 9.94553C22.8569 7.23713 25.8772 5.57121 28.8771 6.22491C31.8796 6.87918 33.7246 9.60429 33.0002 12.3127Z" fill="#7EBA34"/>
<path d="M32.965 11.7443C32.2405 14.4527 29.2213 16.1181 26.2195 15.4648C23.2188 14.8109 21.3728 12.0856 22.0973 9.37717C22.8226 6.66895 25.8421 5.00285 28.8428 5.65674C31.8446 6.31004 33.6897 9.03514 32.965 11.7443Z" fill="#7EBA34"/>
<path d="M33.1013 11.8064C32.3823 14.4943 29.3849 16.1476 26.4077 15.4989C23.4296 14.8499 21.5976 12.1452 22.3166 9.45727C23.0363 6.77029 26.0331 5.116 29.0109 5.76573C31.9894 6.41313 33.8203 9.11841 33.1013 11.8064Z" fill="url(#paint5_linear_1_96)"/>
<path d="M14.6775 17.5861C16.5189 16.9213 21.1591 16.2232 24.9891 18.7494C28.8192 21.2757 31.7408 22.018 32.7229 22.0734" stroke="#7EBA34"/>
</g>
<defs>
<filter id="filter0_d_1_96" x="0" y="2.03418" width="100" height="53.9658" filterUnits="userSpaceOnUse" color-interpolation-filters="sRGB">
<feFlood flood-opacity="0" result="BackgroundImageFix"/>
<feColorMatrix in="SourceAlpha" type="matrix" values="0 0 0 0 0 0 0 0 0 0 0 0 0 0 0 0 0 0 127 0" result="hardAlpha"/>
<feOffset dy="4"/>
<feGaussianBlur stdDeviation="2"/>
<feComposite in2="hardAlpha" operator="out"/>
<feColorMatrix type="matrix" values="0 0 0 0 0 0 0 0 0 0 0 0 0 0 0 0 0 0 0.25 0"/>
<feBlend mode="normal" in2="BackgroundImageFix" result="effect1_dropShadow_1_96"/>
<feBlend mode="normal" in="SourceGraphic" in2="effect1_dropShadow_1_96" result="shape"/>
</filter>
<linearGradient id="paint0_linear_1_96" x1="23.0187" y1="8.7637" x2="35.0034" y2="11.9614" gradientUnits="userSpaceOnUse">
<stop stop-color="white"/>
<stop offset="1" stop-color="#F8F8F8"/>
</linearGradient>
<linearGradient id="paint1_linear_1_96" x1="9.21953" y1="9.56525" x2="18.0974" y2="11.934" gradientUnits="userSpaceOnUse">
<stop stop-color="white"/>
<stop offset="1" stop-color="#EAEAEA"/>
</linearGradient>
<linearGradient id="paint2_linear_1_96" x1="33.4411" y1="17.385" x2="40.0994" y2="19.1615" gradientUnits="userSpaceOnUse">
<stop stop-color="white"/>
<stop offset="1" stop-color="#EAEAEA"/>
</linearGradient>
<linearGradient id="paint3_linear_1_96" x1="29.8395" y1="12.8612" x2="38.2728" y2="15.1113" gradientUnits="userSpaceOnUse">
<stop stop-color="white"/>
<stop offset="1" stop-color="#F0F0F0"/>
</linearGradient>
<linearGradient id="paint4_linear_1_96" x1="18.2213" y1="9.37789" x2="27.4383" y2="11.8371" gradientUnits="userSpaceOnUse">
<stop stop-color="white"/>
<stop offset="1" stop-color="#F8F8F8"/>
</linearGradient>
<linearGradient id="paint5_linear_1_96" x1="22.3153" y1="9.45922" x2="32.9689" y2="12.3017" gradientUnits="userSpaceOnUse">
<stop stop-color="white"/>
<stop offset="1" stop-color="#F2F2F2"/>
</linearGradient>
</defs>
</svg>
