<svg width="92" height="48" viewBox="0 0 92 48" fill="none" xmlns="http://www.w3.org/2000/svg">
<path d="M17.0614 27.6871C15.548 27.6871 14.3174 26.4619 14.3174 24.9513C14.3174 23.4408 15.548 22.2174 17.0614 22.2174C18.5803 22.2174 19.8091 23.4426 19.8091 24.9513C19.8109 26.4637 18.5803 27.6871 17.0614 27.6871ZM31.3257 28.0316L23.726 20.5938C21.8829 18.7909 19.4776 17.8221 17.0614 17.7988C14.6507 17.8239 12.2436 18.7909 10.4023 20.5938L2.79718 28.0316C-0.932394 31.6823 -0.932394 37.5988 2.79718 41.2477L3.76471 42.1877C5.46914 43.8615 14.3715 47.679 15.1696 48.0002V33.557C15.1696 33.1157 14.8579 32.7174 14.4363 32.5542L9.69419 30.71C9.29961 31.0401 8.79333 31.2392 8.23299 31.2392C6.98079 31.2392 5.95921 30.2238 5.95921 28.9716C5.95921 27.7194 6.98079 26.7058 8.23299 26.7058C9.40051 26.7058 10.35 27.5723 10.4924 28.6936L15.1102 30.4893C15.7354 30.7333 16.3984 30.8589 17.0596 30.8678C17.7299 30.8589 18.3911 30.7333 19.0181 30.4893L23.6305 28.6936C23.7675 27.5723 24.7278 26.7058 25.8899 26.7058C27.1457 26.7058 28.1673 27.7194 28.1673 28.9716C28.1673 30.2238 27.1457 31.2392 25.8899 31.2392C25.335 31.2392 24.8197 31.0383 24.4287 30.71L19.6866 32.5542C19.2686 32.7174 18.9587 33.1157 18.9587 33.557V48.0002C19.7532 47.679 28.6502 43.8615 30.3636 42.1877L31.3221 41.2477C35.0553 37.597 35.0553 31.6805 31.3257 28.0316Z" fill="#7EBA34"/>
<path d="M43.7681 33.5036H45.3482V23.662H43.7681V33.5036ZM87.7158 28.276L92.0003 33.5054H90.1229L86.2654 28.7604V27.8544L90.0526 23.6637H91.8688L87.7158 28.276ZM85.7105 33.5036H84.1249V23.662H85.7105V33.5036ZM80.8404 26.6686C80.8404 26.1825 80.689 25.7932 80.3882 25.5026C80.0819 25.2101 79.6296 25.0648 79.0206 25.0648H76.9829V28.3352H78.9774C79.5684 28.3352 80.0206 28.1845 80.3485 27.8831C80.68 27.5818 80.8404 27.1763 80.8404 26.6686ZM82.4241 26.6686C82.4241 27.3503 82.2277 27.9405 81.8386 28.4447C81.4476 28.9452 80.9233 29.2986 80.2674 29.5031L82.6025 33.5036H80.898L78.6999 29.7363H76.9811V33.5036H75.3956V23.662H79.0188C79.5558 23.662 80.0404 23.7391 80.4656 23.8952C80.8872 24.0512 81.2476 24.2665 81.5359 24.5374C81.8241 24.8119 82.0421 25.1294 82.1935 25.4954C82.3484 25.8596 82.4241 26.2524 82.4241 26.6686ZM70.3976 27.6338L69.7219 25.298H69.6949L69.0211 27.6338L68.2896 29.722H71.1309L70.3976 27.6338ZM74.1236 33.5036H72.4804L71.6138 31.08H67.7869L66.9347 33.5036H65.2969L68.9021 23.662H70.5183L74.1236 33.5036ZM63.8627 26.787C63.8627 26.2614 63.7024 25.8416 63.4051 25.5295C63.1042 25.2191 62.6592 25.063 62.0826 25.063H60.2665V28.5684H61.9979C62.5799 28.5684 63.0375 28.4106 63.3691 28.093C63.6934 27.7773 63.8627 27.3414 63.8627 26.787ZM65.4428 26.787C65.4428 27.2337 65.3582 27.6499 65.1996 28.0356C65.0392 28.4213 64.8086 28.755 64.5077 29.042C64.2141 29.3309 63.8501 29.5569 63.4249 29.7202C63.0033 29.8852 62.5276 29.9677 61.9997 29.9677H60.2683V33.5018H58.6792V23.6602H62.0844C62.6123 23.6602 63.0826 23.7409 63.5006 23.9023C63.9186 24.062 64.2681 24.2845 64.5528 24.5679C64.8465 24.8496 65.0681 25.1796 65.2194 25.56C65.3672 25.9385 65.4428 26.3493 65.4428 26.787ZM51.0542 33.5036H49.4741V25.0487L46.5716 25.063V23.6602H53.9767V25.063L51.0561 25.0487V33.5036H51.0542Z" fill="#323231"/>
<path d="M44.2371 40.7692H43.7681V37.2414H44.2371V38.9308L45.7891 37.2414H46.3729L45.0156 38.7122L46.4528 40.7692H45.8889L44.6813 39.0152L44.2371 39.4475V40.7692Z" fill="#323231"/>
<path d="M47.3609 40.7692H46.8918V37.2414H47.3609V40.7692Z" fill="#323231"/>
<path d="M49.4653 40.7692H48.9962V37.6687H47.9383V37.2414H50.5232V37.6687H49.4653V40.7692Z" fill="#323231"/>
<path d="M53.7294 38.1159L53.3102 38.3097C53.1106 37.8294 52.7995 37.5892 52.377 37.5892C52.214 37.5892 52.0677 37.6224 51.9379 37.6886C51.8082 37.7549 51.6967 37.8493 51.6036 37.9718C51.5137 38.0944 51.4439 38.2434 51.394 38.419C51.3474 38.5946 51.3241 38.7917 51.3241 39.0103C51.3241 39.2256 51.3474 39.421 51.394 39.5966C51.4439 39.7688 51.5137 39.9162 51.6036 40.0388C51.6934 40.1613 51.8015 40.2557 51.9279 40.322C52.0543 40.3882 52.1974 40.4214 52.3571 40.4214C52.57 40.4214 52.758 40.3584 52.921 40.2326C53.084 40.1034 53.2154 39.9146 53.3152 39.6661L53.7394 39.8599C53.5996 40.1812 53.4133 40.4247 53.1805 40.5903C52.9476 40.7559 52.6748 40.8387 52.3621 40.8387C52.1359 40.8387 51.9296 40.7957 51.7433 40.7095C51.557 40.6234 51.3973 40.5009 51.2642 40.3419C51.1345 40.1829 51.033 39.9924 50.9598 39.7705C50.89 39.5452 50.855 39.2951 50.855 39.0202C50.855 38.742 50.8916 38.4886 50.9648 38.26C51.038 38.0314 51.1411 37.8377 51.2742 37.6787C51.4106 37.5164 51.5736 37.3922 51.7633 37.306C51.9529 37.2166 52.1641 37.1719 52.397 37.1719C53.0158 37.1719 53.4599 37.4866 53.7294 38.1159Z" fill="#323231"/>
<path d="M54.8851 40.7692H54.416V37.2414H54.8851V38.7122H56.6316V37.2414H57.1007V40.7692H56.6316V39.1295H54.8851V40.7692Z" fill="#323231"/>
<path d="M60.1449 40.3518V40.7692H57.9393V37.2414H60.0651V37.6588H58.4084V38.742H59.9154V39.1494H58.4084V40.3518H60.1449Z" fill="#323231"/>
<path d="M61.3126 40.7692H60.8535V37.2414H61.3824L63.2188 39.9642H63.2288V37.2414H63.6879V40.7692H63.2288L61.3225 37.937H61.3126V40.7692Z" fill="#323231"/>
<path d="M10.3104 16.6318C9.42653 15.967 9.20557 15.2468 9.20557 14.9698C9.20557 13.4004 10.2575 12.0258 11.7723 11.6157L12.2683 11.4814C12.6792 11.3701 13.1047 11.3228 13.53 11.3411L16.7552 11.4797L21.7122 12.2827C23.1891 12.522 24.6296 12.9478 25.9992 13.5501L29.5267 15.1012C30.5621 15.5565 31.4318 16.3203 32.0168 17.2884L32.8859 18.7266C33.1661 19.1902 33.229 19.7532 33.0582 20.2672C32.8794 20.8052 32.4638 21.2315 31.9306 21.424L31.8543 21.4515C31.4861 21.5623 30.5654 21.7839 29.8288 21.7839C29.6635 21.7839 29.5075 21.8118 29.3628 21.8583C28.5554 22.1173 28.2485 23.0345 28.0385 23.8559L27.807 24.7613C27.8046 24.7707 27.8033 24.7804 27.8033 24.7902C27.8033 24.8668 27.731 24.9226 27.657 24.9031C26.1417 24.5027 23.3425 23.7408 23.1999 23.6121C23.0526 23.4792 18.7193 22.0055 16.571 21.2853C12.8288 20.2461 11.0085 20.9204 10.5263 21.4169C10.5052 21.4386 10.4771 21.4515 10.4469 21.4515C10.3783 21.4515 10.3285 21.3862 10.346 21.3198C10.7101 19.9439 11.166 17.2754 10.3104 16.6318Z" fill="white" stroke="#7EBA34"/>
<path d="M34.5397 14.7945C34.5534 14.7502 34.5664 14.7049 34.5794 14.6596C35.1281 12.61 33.9269 10.5484 31.8426 9.7535C31.6749 9.68966 31.536 9.51427 31.5264 9.35038C31.38 6.89824 29.479 4.72023 26.699 4.11431C25.0796 3.76149 23.4568 4.007 22.1118 4.69291C21.9533 4.77378 21.7552 4.73072 21.6548 4.59357C20.8043 3.43295 19.4852 2.54718 17.8675 2.19473C14.8512 1.53744 11.8181 2.95498 10.6071 5.42986C10.534 5.57991 10.3341 5.69828 10.153 5.70204C7.9556 5.75131 5.98074 7.12007 5.44085 9.1401C4.79527 11.5528 6.43935 13.9804 9.11186 14.5621C10.9068 14.9531 12.7095 14.4123 13.895 13.2835C14.0204 13.1647 14.251 13.1103 14.4232 13.161C14.5799 13.2075 14.739 13.2487 14.9023 13.2842C16.5217 13.637 18.1454 13.3917 19.4893 12.7064C19.6478 12.6255 19.8459 12.6686 19.9463 12.8057C20.7966 13.9671 22.1161 14.8513 23.7338 15.2038C24.2794 15.3224 24.8249 15.3729 25.3608 15.3625C25.5429 15.3589 25.7475 15.4706 25.8308 15.6165C26.4366 16.6708 27.5251 17.4907 28.9041 17.7904C28.9857 17.8081 29.067 17.8241 29.1479 17.8376C29.2834 17.8604 29.3889 18.0061 29.3995 18.1694C29.4957 19.5801 30.5943 20.8303 32.1966 21.1786C34.1627 21.6068 36.1406 20.5158 36.6159 18.7414C37.0147 17.25 36.2241 15.7514 34.7943 15.0565C34.6319 14.9797 34.5162 14.8691 34.5397 14.7945Z" fill="#7EBA34"/>
<path d="M31.1521 11.404C30.3331 14.4669 26.953 16.3574 23.603 15.6276C20.2522 14.8976 18.2003 11.8239 19.0193 8.76101C19.839 5.6991 23.2184 3.80756 26.5682 4.53814C29.9192 5.26733 31.9709 8.34186 31.1521 11.404Z" fill="url(#paint0_linear_320_892)"/>
<path d="M14.9464 11.7169C14.3008 14.1296 11.6123 15.6129 8.93914 15.0303C6.26684 14.4478 4.62275 12.0202 5.26726 9.60808C5.91264 7.19612 8.60304 5.71239 11.2745 6.29471C13.9485 6.87759 15.5917 9.30492 14.9464 11.7169Z" fill="#7EBA34"/>
<path d="M14.2072 11.521C13.6077 13.7615 11.1104 15.1387 8.62895 14.5978C6.14727 14.0576 4.62058 11.8034 5.22007 9.56294C5.81936 7.3232 8.31685 5.94524 10.7983 6.48615C13.2806 7.02724 14.8065 9.28125 14.2072 11.521Z" fill="url(#paint1_linear_320_892)"/>
<path d="M22.365 9.68248C21.5459 12.7454 18.1321 14.6286 14.7386 13.8893C11.346 13.1503 9.25865 10.0688 10.0777 7.00594C10.8974 3.94403 14.3123 2.0602 17.7041 2.79908C21.0984 3.53852 23.1847 6.62057 22.365 9.68248Z" fill="#7EBA34"/>
<path d="M22.3299 9.50218C21.5211 12.5265 18.1494 14.3859 14.7994 13.6561C11.4486 12.9262 9.38834 9.88366 10.1971 6.85929C11.0065 3.83588 14.3776 1.97556 17.7273 2.70611C21.0792 3.43548 23.1384 6.47858 22.3299 9.50218Z" fill="white"/>
<path d="M36.5824 19.026C36.0965 20.8437 34.0698 21.9622 32.0553 21.5227C30.0414 21.0841 28.8023 19.2541 29.2882 17.4364C29.775 15.6189 31.8017 14.5004 33.8154 14.9397C35.8308 15.3794 37.0692 17.2085 36.5824 19.026Z" fill="#7EBA34"/>
<path d="M36.1817 18.8516C35.7073 20.6261 33.8135 21.7354 31.9521 21.33C30.0908 20.9246 28.9661 19.1576 29.4415 17.3824C29.9164 15.6088 31.8097 14.4986 33.671 14.904C35.5324 15.3094 36.656 17.077 36.1817 18.8516Z" fill="url(#paint2_linear_320_892)"/>
<path d="M34.4459 15.1592C33.8359 17.4386 31.2949 18.8411 28.7686 18.2904C26.2431 17.7398 24.6894 15.4456 25.2986 13.166C25.9086 10.8865 28.4504 9.48418 30.9759 10.0348C33.5031 10.5857 35.0559 12.8797 34.4459 15.1592Z" fill="#7EBA34"/>
<path d="M34.3768 14.719C33.7669 16.9985 31.3616 18.4305 29.0044 17.9165C26.6471 17.4033 25.2298 15.1387 25.8391 12.8583C26.449 10.5789 28.8543 9.14686 31.2114 9.66086C33.5702 10.1752 34.9867 12.4396 34.3768 14.719Z" fill="url(#paint3_linear_320_892)"/>
<path d="M23.4694 11.7216C22.847 14.0473 20.2545 15.4776 17.6778 14.9159C15.1019 14.3544 13.5163 12.0142 14.1387 9.68854C14.7611 7.36284 17.3544 5.9327 19.9303 6.49424C22.507 7.05597 24.0917 9.39591 23.4694 11.7216Z" fill="#7EBA34"/>
<path d="M23.5529 11.4081C22.9305 13.7338 20.338 15.1642 17.7613 14.6024C15.1843 14.0415 13.5996 11.7015 14.2222 9.37506C14.8443 7.05015 17.4379 5.61922 20.0138 6.18076C22.5905 6.74249 24.1741 9.08303 23.5529 11.4081Z" fill="url(#paint4_linear_320_892)"/>
<path d="M28.9997 12.3124C28.2752 15.0209 25.2558 16.687 22.2542 16.0329C19.2534 15.379 17.4075 12.6537 18.132 9.94529C18.8564 7.23688 21.8767 5.57097 24.8766 6.22467C27.8791 6.87894 29.7242 9.60404 28.9997 12.3124Z" fill="#7EBA34"/>
<path d="M28.9645 11.7441C28.2401 14.4525 25.2208 16.1178 22.219 15.4645C19.2183 14.8106 17.3723 12.0853 18.0968 9.37693C18.8221 6.66871 21.8416 5.00261 24.8423 5.6565C27.8441 6.3098 29.6892 9.0349 28.9645 11.7441Z" fill="#7EBA34"/>
<path d="M29.1011 11.8064C28.3821 14.4943 25.3846 16.1476 22.4074 15.4989C19.4294 14.8499 17.5974 12.1452 18.3164 9.45727C19.036 6.77029 22.0328 5.116 25.0107 5.76573C27.9892 6.41313 29.8201 9.11841 29.1011 11.8064Z" fill="url(#paint5_linear_320_892)"/>
<path d="M10.6772 17.5863C12.5186 16.9215 17.1588 16.2235 20.9889 18.7497C24.8189 21.2759 27.7406 22.0182 28.7226 22.0736" stroke="#7EBA34"/>
<defs>
<linearGradient id="paint0_linear_320_892" x1="19.0182" y1="8.7637" x2="31.003" y2="11.9614" gradientUnits="userSpaceOnUse">
<stop stop-color="white"/>
<stop offset="1" stop-color="#F8F8F8"/>
</linearGradient>
<linearGradient id="paint1_linear_320_892" x1="5.21929" y1="9.56525" x2="14.0972" y2="11.934" gradientUnits="userSpaceOnUse">
<stop stop-color="white"/>
<stop offset="1" stop-color="#EAEAEA"/>
</linearGradient>
<linearGradient id="paint2_linear_320_892" x1="29.4409" y1="17.3845" x2="36.0991" y2="19.161" gradientUnits="userSpaceOnUse">
<stop stop-color="white"/>
<stop offset="1" stop-color="#EAEAEA"/>
</linearGradient>
<linearGradient id="paint3_linear_320_892" x1="25.8391" y1="12.8612" x2="34.2723" y2="15.1113" gradientUnits="userSpaceOnUse">
<stop stop-color="white"/>
<stop offset="1" stop-color="#F0F0F0"/>
</linearGradient>
<linearGradient id="paint4_linear_320_892" x1="14.2211" y1="9.3774" x2="23.4381" y2="11.8366" gradientUnits="userSpaceOnUse">
<stop stop-color="white"/>
<stop offset="1" stop-color="#F8F8F8"/>
</linearGradient>
<linearGradient id="paint5_linear_320_892" x1="18.3151" y1="9.45922" x2="28.9687" y2="12.3017" gradientUnits="userSpaceOnUse">
<stop stop-color="white"/>
<stop offset="1" stop-color="#F2F2F2"/>
</linearGradient>
</defs>
</svg>
