<svg width="24" height="24" viewBox="0 0 24 24" fill="none" xmlns="http://www.w3.org/2000/svg">
<g clip-path="url(#clip0_205_3953)">
<path opacity="0.937" fill-rule="evenodd" clip-rule="evenodd" d="M16.289 -0.0234375C16.3828 -0.0234375 16.4765 -0.0234375 16.5703 -0.0234375C16.8051 0.0940762 16.9145 0.289389 16.8984 0.5625C16.7828 1.71109 16.6656 2.85953 16.5468 4.00781C16.3819 4.43781 16.1006 4.53156 15.7031 4.28906C15.6153 4.16225 15.5763 4.02162 15.5859 3.86719C15.7031 2.72656 15.8203 1.58594 15.9375 0.445312C15.9609 0.211785 16.0781 0.0555347 16.289 -0.0234375Z" fill="#5B5B5B"/>
<path opacity="0.944" fill-rule="evenodd" clip-rule="evenodd" d="M9.16414 3.11713C10.1 3.08937 10.9594 3.33156 11.7423 3.84369C13.3815 4.93597 14.7174 6.31879 15.7501 7.99213C16.3914 9.02488 16.907 10.1187 17.297 11.2734C17.5872 12.1739 17.6966 13.0958 17.6251 14.039C17.5495 14.8709 17.1511 15.4881 16.4298 15.8906C16.2039 15.9782 15.9695 16.0251 15.7266 16.0312C13.4914 16.211 11.2571 16.3985 9.02352 16.5937C10.0371 18.0662 11.045 19.5427 12.047 21.0234C12.4001 21.7338 12.3844 22.4369 12.0001 23.1328C11.2521 23.9933 10.3693 24.1574 9.35164 23.6249C9.15791 23.4782 8.97824 23.3141 8.81258 23.1328C7.69541 21.4843 6.57819 19.8359 5.46102 18.1874C5.22655 18.2651 4.99217 18.3588 4.75789 18.4687C2.89461 18.8925 1.58993 18.2285 0.843829 16.4765C0.461404 15.1553 0.781715 14.0381 1.80477 13.1249C2.57682 12.6107 3.34244 12.0872 4.10164 11.5546C5.35944 9.00777 6.61728 6.46087 7.87508 3.91401C8.1995 3.47462 8.6292 3.20899 9.16414 3.11713ZM9.30477 4.10151C9.99969 4.11173 10.6403 4.30704 11.2266 4.68744C12.8034 5.75647 14.0768 7.10807 15.047 8.74213C15.8085 9.90613 16.3242 11.1718 16.5938 12.539C16.7519 13.2628 16.6582 13.9503 16.3126 14.6015C15.991 14.9861 15.5925 15.1345 15.1173 15.0468C14.5055 14.8815 13.943 14.6159 13.4298 14.2499C11.1297 12.456 9.52808 10.167 8.62508 7.38276C8.35344 6.54974 8.30656 5.70599 8.48445 4.85151C8.64983 4.47487 8.92325 4.22488 9.30477 4.10151ZM7.47664 6.86713C8.24192 9.85822 9.77319 12.3816 12.0704 14.4374C12.4214 14.7145 12.7808 14.9801 13.1485 15.2343C11.3291 15.41 9.50881 15.5741 7.68758 15.7265C6.80478 14.4374 5.92194 13.1484 5.03914 11.8593C5.87094 10.2036 6.68342 8.53954 7.47664 6.86713ZM4.33602 12.5859C5.13763 13.7428 5.9345 14.9069 6.72664 16.0781C6.03627 16.5652 5.33314 17.0339 4.61727 17.4843C3.20214 17.8822 2.24121 17.39 1.73445 16.0078C1.55582 15.153 1.79801 14.4421 2.46102 13.8749C3.09727 13.4558 3.72226 13.0261 4.33602 12.5859ZM7.57039 16.664C7.74805 16.6358 7.89645 16.6827 8.0157 16.8046C9.05099 18.3596 10.0978 19.9065 11.1563 21.4453C11.5251 22.2546 11.2751 22.7703 10.4063 22.9921C10.1117 22.9542 9.86174 22.8292 9.65633 22.6171C8.53133 20.9609 7.40633 19.3046 6.28133 17.6484C6.24908 17.6094 6.25691 17.5782 6.30477 17.5546C6.74155 17.2733 7.16342 16.9764 7.57039 16.664Z" fill="#5B5B5B"/>
<path opacity="0.93" fill-rule="evenodd" clip-rule="evenodd" d="M21.4922 3.44531C21.9832 3.47465 22.1629 3.72465 22.0312 4.19531C21.9609 4.26562 21.8906 4.33594 21.8203 4.40625C20.7654 5.08209 19.7185 5.76961 18.6797 6.46875C18.2642 6.62498 17.9986 6.49219 17.8828 6.07031C17.9057 5.89172 17.9838 5.74327 18.1172 5.625C19.2388 4.88503 20.3638 4.15848 21.4922 3.44531Z" fill="#5B5B5B"/>
<path opacity="0.938" fill-rule="evenodd" clip-rule="evenodd" d="M11.6016 7.61719C13.3861 7.76869 14.2532 8.73745 14.2031 10.5234C14.0828 11.3306 13.6688 11.9322 12.961 12.3281C12.4596 12.3266 12.2799 12.0844 12.4219 11.6016C13.3231 10.9298 13.4793 10.1174 12.8906 9.16406C12.505 8.74388 12.0285 8.56416 11.461 8.625C11.1436 8.72902 10.831 8.8462 10.5235 8.97656C10.0408 8.83134 9.93147 8.54227 10.1953 8.10938C10.6286 7.827 11.0973 7.66294 11.6016 7.61719Z" fill="#5B5B5B"/>
<path opacity="0.938" fill-rule="evenodd" clip-rule="evenodd" d="M19.0546 8.60156C20.4007 8.82853 21.7444 9.07069 23.0859 9.32812C23.3449 9.46495 23.4308 9.67589 23.3437 9.96094C23.2402 10.1768 23.0683 10.2705 22.8281 10.2422C21.5372 10.0278 20.2481 9.80119 18.9609 9.5625C18.7592 9.4718 18.6655 9.31556 18.6796 9.09375C18.6871 8.83537 18.8121 8.67131 19.0546 8.60156Z" fill="#5B5B5B"/>
</g>
<defs>
<clipPath id="clip0_205_3953">
<rect width="24" height="24" fill="white"/>
</clipPath>
</defs>
</svg>
