<svg width="20" height="15" viewBox="0 0 20 15" fill="none" xmlns="http://www.w3.org/2000/svg">
<path d="M17.3142 8.30339C17.637 9.08254 17.8338 9.90665 17.8985 10.7449L1.97032 10.7449C2.03508 9.90665 2.23189 9.08254 2.55462 8.30339C2.95605 7.33426 3.54443 6.45369 4.28617 5.71195C5.02791 4.97021 5.90848 4.38183 6.87761 3.9804C7.84674 3.57898 8.88545 3.37237 9.93442 3.37237C10.9834 3.37237 12.0221 3.57898 12.9912 3.9804C13.9604 4.38183 14.8409 4.97021 15.5827 5.71195C16.3244 6.45369 16.9128 7.33426 17.3142 8.30339Z" stroke="white" stroke-width="1.23057"/>
<path d="M9.87671 3.03147V1.15015" stroke="white" stroke-width="1.47669"/>
<path d="M8.19092 1.15015H11.5224" stroke="white" stroke-width="1.47669"/>
<path d="M7.83144 0.751865C7.93127 0.652041 8.0647 0.593552 8.20515 0.587415V1.71294C8.0647 1.70681 7.93127 1.64832 7.83144 1.54849C7.7258 1.44285 7.66646 1.29958 7.66646 1.15018C7.66646 1.00078 7.7258 0.857505 7.83144 0.751865ZM11.9204 1.54848C11.8206 1.64831 11.6871 1.7068 11.5467 1.71293L11.5467 0.587405C11.6871 0.593542 11.8206 0.65203 11.9204 0.751855C12.026 0.857494 12.0854 1.00077 12.0854 1.15017C12.0854 1.29957 12.026 1.44284 11.9204 1.54848Z" fill="white" stroke="white" stroke-width="0.0492229"/>
<path d="M18.9901 10.9878H1C1.13481 12.144 1.81838 12.8103 2.82016 13.4374H16.9497C19.2621 12.7907 18.9901 11.6933 18.9901 10.9878Z" stroke="white" stroke-width="1.47669"/>
</svg>
